<svg width="32" height="32" viewBox="0 0 32 32" fill="none" xmlns="http://www.w3.org/2000/svg">
<g clip-path="url(#clip0_209_15)">
<path d="M11.6001 21.1999L6.40005 15.9999L11.6001 10.7999C12.1201 10.2799 12.1201 9.45321 11.6001 8.93321C11.0801 8.41321 10.2534 8.41321 9.73339 8.93321L3.61339 15.0532C3.09339 15.5732 3.09339 16.4132 3.61339 16.9332L9.73339 23.0665C10.2534 23.5865 11.0801 23.5865 11.6001 23.0665C12.1201 22.5465 12.1201 21.7199 11.6001 21.1999ZM20.4001 21.1999L25.6001 15.9999L20.4001 10.7999C19.8801 10.2799 19.8801 9.45321 20.4001 8.93321C20.9201 8.41321 21.7467 8.41321 22.2667 8.93321L28.3867 15.0532C28.9067 15.5732 28.9067 16.4132 28.3867 16.9332L22.2667 23.0665C21.7467 23.5865 20.9201 23.5865 20.4001 23.0665C19.8801 22.5465 19.8801 21.7199 20.4001 21.1999Z" fill="white"/>
</g>
<defs>
<clipPath id="clip0_209_15">
<rect width="32" height="32" fill="white"/>
</clipPath>
</defs>
</svg>
